<?xml version="1.0" encoding="utf-8"?>
<!-- Generator: Adobe Illustrator 25.0.0, SVG Export Plug-In . SVG Version: 6.00 Build 0)  -->
<svg version="1.1" id="Layer_1" xmlns="http://www.w3.org/2000/svg" xmlns:xlink="http://www.w3.org/1999/xlink" x="0px" y="0px"
	 viewBox="0 0 1280 373" style="enable-background:new 0 0 1280 373;" xml:space="preserve">
<style type="text/css">
	.st0{fill:#FFFFFF;}
	.st1{fill:#029FE3;}
</style>
<g>
	<path class="st1" d="M617.6,232.9c-1.3,13-5.5,24.7-12.7,34.9c-7.2,10.3-17.2,18.3-30.1,24.1c-12.9,5.8-28.7,8.7-47.4,8.7
		c-18.9,0-35.3-3.8-49.2-11.5c-13.9-7.7-24.6-18.6-32.1-32.7c-7.5-14.1-11.3-30.8-11.3-50v-15.7c0-19.3,3.8-36,11.5-50.1
		c7.7-14.1,18.5-25,32.7-32.7c14.1-7.7,30.8-11.6,50-11.6c18.4,0,33.9,2.9,46.5,8.8c12.6,5.9,22.4,14,29.4,24.3
		c7,10.3,11.2,22.2,12.7,35.6h-40.4c-1.6-12.7-5.9-22.5-13-29.5c-7.1-7-18.8-10.5-35.2-10.5c-11.9,0-21.7,2.5-29.5,7.6
		c-7.8,5.1-13.7,12.4-17.7,22.1c-4,9.7-6,21.6-6,35.7v16c0,13.5,1.8,25.1,5.3,34.9c3.6,9.8,9.1,17.4,16.7,22.7s17.4,8,29.6,8
		c11.1,0,20.1-1.5,27-4.5c6.9-3,12.1-7.4,15.7-13.2c3.6-5.8,5.9-12.9,6.9-21.4H617.6z"/>
	<path class="st1" d="M686.1,297.7h-36.6V71h36.6V297.7z"/>
	<path class="st1" d="M724.6,96.2c0-5.6,1.8-10.3,5.5-13.9c3.6-3.7,8.7-5.5,15.2-5.5s11.6,1.8,15.3,5.5c3.7,3.7,5.6,8.3,5.6,13.9
		c0,5.5-1.9,10.1-5.6,13.8c-3.7,3.7-8.9,5.5-15.3,5.5s-11.6-1.8-15.2-5.5C726.5,106.4,724.6,101.8,724.6,96.2z M763.6,297.7H727V138
		h36.6V297.7z"/>
	<path class="st1" d="M838.3,297.7h-36.6V138h34.4l2.2,34.1V297.7z M820,212.3c0.1-15.4,2.8-29,8.1-40.5c5.3-11.6,12.7-20.6,22.3-27
		c9.5-6.4,20.7-9.7,33.4-9.7c10.3,0,19.3,1.9,26.9,5.8c7.6,3.9,13.5,10.2,17.7,18.9c4.2,8.7,6.3,20.4,6.3,35.1v102.9h-36.8V194.5
		c0-7.4-1.1-13.2-3.2-17.6c-2.1-4.3-5.3-7.4-9.4-9.2c-4.2-1.8-9.3-2.7-15.3-2.7c-6.1,0-11.5,1.2-16.2,3.6c-4.7,2.4-8.7,5.8-12,10.1
		c-3.3,4.3-5.8,9.3-7.5,15.1c-1.7,5.7-2.6,11.8-2.6,18.3L820,212.3z"/>
	<path class="st1" d="M970.5,96.2c0-5.6,1.8-10.3,5.5-13.9c3.6-3.7,8.7-5.5,15.2-5.5s11.6,1.8,15.3,5.5c3.7,3.7,5.6,8.3,5.6,13.9
		c0,5.5-1.9,10.1-5.6,13.8c-3.7,3.7-8.9,5.5-15.3,5.5s-11.6-1.8-15.2-5.5C972.4,106.4,970.5,101.8,970.5,96.2z M1009.5,297.7h-36.6
		V138h36.6V297.7z"/>
	<path class="st1" d="M1129.6,165h-93.6v-27h93.6V165z M1060.4,297.7V122.8c0-17.7,5-31.3,15.1-40.7c10-9.4,23.8-14.2,41.2-14.2
		c3.5,0,7,0.2,10.5,0.7c3.4,0.5,6.8,1.1,10,1.9l-0.9,28.6c-1.9-0.4-4-0.7-6.3-0.9s-4.8-0.3-7.4-0.3c-8.1,0-14.3,2.1-18.8,6.4
		c-4.5,4.3-6.7,10.4-6.7,18.4v174.9H1060.4z"/>
	<path class="st1" d="M1195.3,256.2l6.5,39.6l-25.4,5.8L1118.7,138h39.6L1195.3,256.2z M1224.4,138h39.1l-63.9,183.9
		c-1.5,4-3.4,8.4-5.8,13c-2.4,4.6-5.4,9-9.2,13.1c-3.8,4.1-8.5,7.5-14.2,10.2s-12.5,4-20.4,4c-2.2,0-4.3-0.1-6.3-0.4
		c-2-0.2-4-0.6-5.8-1c-1.9-0.4-3.7-0.8-5.5-1.3v-28.2c1,0.1,2.2,0.2,3.5,0.3c1.4,0.1,2.5,0.1,3.4,0.1c8.8,0,15.4-1.6,19.9-4.7
		c4.5-3.2,8-8.5,10.5-16.1l11.7-30.8L1224.4,138z"/>
	<g>
		<ellipse class="st1" cx="115.1" cy="271.3" rx="51.6" ry="52.1"/>
		<ellipse class="st1" cx="67.6" cy="138.4" rx="52.1" ry="52.6"/>
		<ellipse class="st1" cx="265.5" cy="271.3" rx="52.1" ry="52.6"/>
		<ellipse class="st1" cx="317.8" cy="138.7" rx="52.1" ry="52.6"/>
		<ellipse class="st1" cx="191" cy="64.7" rx="52.1" ry="52.6"/>
	</g>
</g>
</svg>
