<svg version="1.1" xmlns="http://www.w3.org/2000/svg" viewBox="0 0 837.8114318847656 1850.339454650879" width="837.8114318847656" height="1850.339454650879">
  <!-- svg-source:excalidraw -->
  
  <defs>
    <style class="style-fonts">
      @font-face {
        font-family: "Virgil";
        src: url("https://excalidraw.com/Virgil.woff2");
      }
      @font-face {
        font-family: "Cascadia";
        src: url("https://excalidraw.com/Cascadia.woff2");
      }
    </style>
    
  </defs>
  <rect x="0" y="0" width="837.8114318847656" height="1850.339454650879" fill="#ffffff"></rect><g stroke-linecap="round" transform="translate(10 10) rotate(0 408.9057159423828 915.1697273254395)"><path d="M32 0 M32 0 C219.8 0.48, 405.91 -0.26, 785.81 0 M32 0 C310.86 0.68, 589.87 0.88, 785.81 0 M785.81 0 C806.22 0.53, 816 9.43, 817.81 32 M785.81 0 C809.09 2.04, 818.77 12.42, 817.81 32 M817.81 32 C823.01 551.23, 823.04 1071.06, 817.81 1798.34 M817.81 32 C819.84 626.69, 819.93 1222.26, 817.81 1798.34 M817.81 1798.34 C819.41 1819.33, 807.67 1831.79, 785.81 1830.34 M817.81 1798.34 C815.81 1817.47, 805.1 1832.14, 785.81 1830.34 M785.81 1830.34 C579.98 1831.01, 373.39 1831.76, 32 1830.34 M785.81 1830.34 C595.19 1832.7, 405.02 1832.98, 32 1830.34 M32 1830.34 C11.97 1831.08, 1.06 1818.48, 0 1798.34 M32 1830.34 C10.99 1829.91, -0.67 1820.06, 0 1798.34 M0 1798.34 C-1.52 1160.92, -1.14 525.33, 0 32 M0 1798.34 C-4.35 1416.15, -4.08 1033.3, 0 32 M0 32 C0.14 9.12, 9.01 -0.38, 32 0 M0 32 C0.58 12.59, 11.81 0.01, 32 0" stroke="#e03131" stroke-width="1" fill="none"></path></g><g stroke-linecap="round" transform="translate(90.603759765625 55.283042907714844) rotate(0 20.830184936523438 24.5)"><path d="M29.49 2.01 C33.38 3.81, 38.52 8.73, 40.24 13.76 C41.96 18.79, 40.99 26.94, 39.81 32.17 C38.63 37.41, 36.61 42.37, 33.16 45.18 C29.7 47.99, 23.55 49.51, 19.08 49.03 C14.61 48.54, 9.43 46.16, 6.35 42.27 C3.28 38.38, 1.09 31.12, 0.61 25.7 C0.14 20.29, 1.04 14.01, 3.5 9.78 C5.96 5.55, 10.7 1.46, 15.35 0.31 C20 -0.84, 28.6 1.99, 31.39 2.87 C34.18 3.76, 32.26 5.26, 32.07 5.61 M14.46 0.59 C18.48 -0.85, 26.37 0.82, 30.41 2.97 C34.45 5.13, 36.78 8.9, 38.68 13.5 C40.58 18.09, 42.86 25.25, 41.81 30.54 C40.76 35.84, 36.21 42.33, 32.38 45.26 C28.55 48.2, 23.03 48.87, 18.85 48.13 C14.67 47.39, 10.44 44.68, 7.3 40.83 C4.15 36.98, 0.67 30.22, -0.02 25.03 C-0.71 19.84, 0.59 13.6, 3.16 9.69 C5.72 5.79, 13.25 3.15, 15.36 1.63 C17.48 0.1, 15.83 0.16, 15.86 0.56" stroke="#e03131" stroke-width="1" fill="none"></path></g><g stroke-linecap="round" transform="translate(153.99993896484375 60.717063903808594) rotate(0 41.660369873046875 17.5)"><path d="M8.75 0 M8.75 0 C24.01 -0.16, 41.48 1.39, 74.57 0 M8.75 0 C28.54 0.86, 50.16 -0.03, 74.57 0 M74.57 0 C78.54 0.99, 84.95 3.49, 83.32 8.75 M74.57 0 C80.85 -2.01, 84.09 0.82, 83.32 8.75 M83.32 8.75 C82.11 12.06, 83.44 16.91, 83.32 26.25 M83.32 8.75 C83.46 16.37, 84.18 22.1, 83.32 26.25 M83.32 26.25 C83.65 31.37, 82.34 34.11, 74.57 35 M83.32 26.25 C81.56 32.18, 81.66 33.02, 74.57 35 M74.57 35 C60.6 35.96, 44.19 33.61, 8.75 35 M74.57 35 C59.32 35.39, 41.36 34.84, 8.75 35 M8.75 35 C3.71 36.07, -1.08 31.46, 0 26.25 M8.75 35 C1.89 36.57, -1.68 31.96, 0 26.25 M0 26.25 C1.16 20.58, 0.97 18.32, 0 8.75 M0 26.25 C-0.39 22.39, 0.21 16.94, 0 8.75 M0 8.75 C-1.74 1.31, 2.24 -0.25, 8.75 0 M0 8.75 C1.63 3.39, 3.91 -1.25, 8.75 0" stroke="#e03131" stroke-width="1" fill="none"></path></g><g transform="translate(166.13033294677734 65.7170639038086) rotate(0 29.52997589111328 12.5)"><text x="29.52997589111328" y="0" font-family="Virgil, Segoe UI Emoji" font-size="20px" fill="#e03131" text-anchor="middle" style="white-space: pre;" direction="ltr" dominant-baseline="text-before-edge">unnati</text></g><g stroke-linecap="round" transform="translate(399.4341125488281 64.33971405029297) rotate(0 168.45285034179688 14.490547180175781)"><path d="M7.25 0 M7.25 0 C120.29 -0.91, 230.47 -2.02, 329.66 0 M7.25 0 C121.11 -0.91, 234.59 -1.29, 329.66 0 M329.66 0 C333.91 -0.67, 337.22 1.98, 336.91 7.25 M329.66 0 C334.41 2.11, 336.66 2.91, 336.91 7.25 M336.91 7.25 C335.6 10.61, 336.13 13.45, 336.91 21.74 M336.91 7.25 C336.64 10.52, 337.34 15.04, 336.91 21.74 M336.91 21.74 C337.91 26.71, 333.31 28.42, 329.66 28.98 M336.91 21.74 C336.57 27.84, 334.45 27.64, 329.66 28.98 M329.66 28.98 C242.81 30.27, 156.37 30.97, 7.25 28.98 M329.66 28.98 C207.91 29.65, 86.08 28.87, 7.25 28.98 M7.25 28.98 C1.1 28.08, -0.07 27.32, 0 21.74 M7.25 28.98 C2.05 29.09, 2.21 25.77, 0 21.74 M0 21.74 C-1.18 15.73, 0.99 11.28, 0 7.25 M0 21.74 C-0.51 18.86, 0.19 15.47, 0 7.25 M0 7.25 C-1.24 3.67, 2.55 -0.94, 7.25 0 M0 7.25 C0.22 3.8, 1.76 -0.56, 7.25 0" stroke="#e03131" stroke-width="1" fill="none"></path></g><g stroke-linecap="round" transform="translate(85.16970825195312 122.30199432373047) rotate(0 110.49049377441406 115.924560546875)"><path d="M32 0 M32 0 C80.93 -0.61, 129.68 2.18, 188.98 0 M32 0 C71.09 1.73, 111.47 1.04, 188.98 0 M188.98 0 C211.94 1.76, 219.05 12, 220.98 32 M188.98 0 C210.12 -1.48, 218.88 11.23, 220.98 32 M220.98 32 C218.63 71.73, 221.87 110.14, 220.98 199.85 M220.98 32 C222.97 78.57, 222.68 124.57, 220.98 199.85 M220.98 199.85 C221.86 222.85, 211.76 233.82, 188.98 231.85 M220.98 199.85 C221.94 222.47, 210.96 229.84, 188.98 231.85 M188.98 231.85 C141.72 232.36, 96.63 234.36, 32 231.85 M188.98 231.85 C132.78 233.76, 75.73 233.02, 32 231.85 M32 231.85 C10.84 230.39, -0.94 223.16, 0 199.85 M32 231.85 C11.64 231.44, -1.77 221.29, 0 199.85 M0 199.85 C0.97 133.79, 2.3 66.8, 0 32 M0 199.85 C-0.48 144.03, -0.94 88.75, 0 32 M0 32 C-0.31 10.97, 12.12 -0.77, 32 0 M0 32 C1.33 10.37, 10.98 0.79, 32 0" stroke="#e03131" stroke-width="1" fill="none"></path></g><g stroke-linecap="round" transform="translate(110.5283203125 178.45279693603516) rotate(0 80.603759765625 57.96226501464844)"><path d="M28.98 0 M28.98 0 C51.31 -2.15, 77.47 0.36, 132.23 0 M28.98 0 C56.62 -0.87, 83.85 0.41, 132.23 0 M132.23 0 C150.97 -1.77, 159.94 9.73, 161.21 28.98 M132.23 0 C149.45 0.61, 162.26 7.9, 161.21 28.98 M161.21 28.98 C162.36 43.21, 160.37 60.24, 161.21 86.94 M161.21 28.98 C160.31 47.35, 160.86 65.53, 161.21 86.94 M161.21 86.94 C162.58 108.24, 151.85 117.1, 132.23 115.92 M161.21 86.94 C161.59 106.98, 151.29 116.9, 132.23 115.92 M132.23 115.92 C92.95 116.18, 57.81 118.61, 28.98 115.92 M132.23 115.92 C111.51 115.61, 89.3 115.47, 28.98 115.92 M28.98 115.92 C10.82 115.61, 0.23 105.28, 0 86.94 M28.98 115.92 C11.47 114.7, -0.23 104.58, 0 86.94 M0 86.94 C-1.2 67.83, -1.2 44.27, 0 28.98 M0 86.94 C0.45 67.19, -0.45 46.55, 0 28.98 M0 28.98 C1.91 9.56, 11.53 0.19, 28.98 0 M0 28.98 C2.16 11.71, 11.88 -0.96, 28.98 0" stroke="#e03131" stroke-width="1" fill="none"></path></g><g stroke-linecap="round" transform="translate(318.83013916015614 120.4905776977539) rotate(0 220.98118591308588 116.37736511230469)"><path d="M32 0 M32 0 C114.42 -1.11, 196.07 -1.42, 409.96 0 M32 0 C118.62 -1.61, 205.8 -2.3, 409.96 0 M409.96 0 C433.06 1.65, 442.98 12.26, 441.96 32 M409.96 0 C429.68 1.76, 440.75 11.53, 441.96 32 M441.96 32 C442.08 72.85, 441.05 118.44, 441.96 200.75 M441.96 32 C440.85 93.46, 442.25 156, 441.96 200.75 M441.96 200.75 C442.59 224.01, 430.55 234.35, 409.96 232.75 M441.96 200.75 C440.15 220, 433.15 231.36, 409.96 232.75 M409.96 232.75 C293.18 233.35, 175.68 231.18, 32 232.75 M409.96 232.75 C296.36 230.39, 183.99 230.89, 32 232.75 M32 232.75 C9.59 231.44, 0.35 220.2, 0 200.75 M32 232.75 C9.96 234.47, -0.41 222.76, 0 200.75 M0 200.75 C-1.8 147.95, 1.61 100.2, 0 32 M0 200.75 C0.64 134.13, 0.39 65.26, 0 32 M0 32 C0.24 10.75, 11.68 -1.5, 32 0 M0 32 C-0.37 10.24, 11.95 0.88, 32 0" stroke="#e03131" stroke-width="1" fill="none"></path></g><g transform="translate(139.50942993164062 224.19029235839844) rotate(0 32.28997039794922 12.5)"><text x="0" y="0" font-family="Virgil, Segoe UI Emoji" font-size="20px" fill="#e03131" text-anchor="start" style="white-space: pre;" direction="ltr" dominant-baseline="text-before-edge">tagline</text></g><g stroke-linecap="round" transform="translate(83.35842895507812 393.4009704589844) rotate(0 329.2075500488281 127.24530029296875)"><path d="M32 0 M32 0 C265.42 -1.51, 498.36 -1.89, 626.42 0 M32 0 C175.69 0.46, 318.88 -0.01, 626.42 0 M626.42 0 C646.41 -1.21, 656.84 10.39, 658.42 32 M626.42 0 C649.47 0.53, 660.29 10.85, 658.42 32 M658.42 32 C659.16 99.7, 656.6 169.37, 658.42 222.49 M658.42 32 C659.37 88.05, 660.48 143.34, 658.42 222.49 M658.42 222.49 C657.71 242.03, 646.93 253.09, 626.42 254.49 M658.42 222.49 C658.19 242.03, 646.56 253.36, 626.42 254.49 M626.42 254.49 C396.64 255.6, 166.08 255.06, 32 254.49 M626.42 254.49 C419.71 255.22, 213.45 255.14, 32 254.49 M32 254.49 C11.87 253.43, 0.42 245.37, 0 222.49 M32 254.49 C9.11 254.99, -1.61 244.02, 0 222.49 M0 222.49 C0.07 156.36, -0.81 92.51, 0 32 M0 222.49 C-0.13 172.04, -0.82 120.01, 0 32 M0 32 C-1.4 10.2, 12.46 -1.68, 32 0 M0 32 C0.85 10.46, 10.62 1.15, 32 0" stroke="#e03131" stroke-width="1" fill="none"></path></g><g stroke-linecap="round" transform="translate(160.33966064453125 499.3631896972656) rotate(0 81.509521484375 57.50944519042969)"><path d="M28.75 0 M28.75 0 C57.22 -1.63, 84.01 -0.9, 134.26 0 M28.75 0 C55.92 -0.54, 85.14 -0.58, 134.26 0 M134.26 0 C153.17 -1.14, 161.55 8.48, 163.02 28.75 M134.26 0 C155.66 -0.22, 163.49 9.78, 163.02 28.75 M163.02 28.75 C163.29 44.39, 161.96 55.29, 163.02 86.26 M163.02 28.75 C164.07 41.76, 162.6 55.61, 163.02 86.26 M163.02 86.26 C164.8 104.82, 151.51 113.51, 134.26 115.02 M163.02 86.26 C163.35 104.94, 151.36 115.14, 134.26 115.02 M134.26 115.02 C111.55 117.51, 85.45 113.95, 28.75 115.02 M134.26 115.02 C105.69 113.39, 77.73 113.73, 28.75 115.02 M28.75 115.02 C8.35 116.77, 1.38 105.58, 0 86.26 M28.75 115.02 C9.4 113.97, 0.1 105.52, 0 86.26 M0 86.26 C-0.92 70.42, -0.88 55.44, 0 28.75 M0 86.26 C0.6 65.31, 0.46 43.03, 0 28.75 M0 28.75 C1.09 8.22, 11.14 -1.46, 28.75 0 M0 28.75 C-2.28 8.89, 11.26 -0.17, 28.75 0" stroke="#e03131" stroke-width="1" fill="none"></path></g><g stroke-linecap="round" transform="translate(344.2264099121094 499.40093994140625) rotate(0 81.509521484375 57.50944519042969)"><path d="M28.75 0 M28.75 0 C61.41 -2.68, 94.21 -0.4, 134.26 0 M28.75 0 C54.98 0.33, 81.92 -0.56, 134.26 0 M134.26 0 C152.9 -1.94, 161.94 11.27, 163.02 28.75 M134.26 0 C152.61 -1.41, 163.83 8.13, 163.02 28.75 M163.02 28.75 C162.14 48.14, 163.53 70.68, 163.02 86.26 M163.02 28.75 C162.35 41.57, 161.94 52.85, 163.02 86.26 M163.02 86.26 C162.86 103.65, 155.24 115.87, 134.26 115.02 M163.02 86.26 C162.21 104.79, 151.84 112.76, 134.26 115.02 M134.26 115.02 C105.03 114.18, 78.44 113.8, 28.75 115.02 M134.26 115.02 C97.6 115.88, 62.95 115.69, 28.75 115.02 M28.75 115.02 C9.48 113.02, 0.09 104.15, 0 86.26 M28.75 115.02 C9.2 114.51, 0.2 105.62, 0 86.26 M0 86.26 C-0.85 71.37, -2.44 51.95, 0 28.75 M0 86.26 C0.68 72.83, 0.71 58.21, 0 28.75 M0 28.75 C1.14 7.66, 8.14 -1.03, 28.75 0 M0 28.75 C0.88 9.07, 11.6 -0.17, 28.75 0" stroke="#e03131" stroke-width="1" fill="none"></path></g><g stroke-linecap="round" transform="translate(522.6790466308594 496.7217102050781) rotate(0 81.509521484375 57.50944519042969)"><path d="M28.75 0 M28.75 0 C58.99 1.29, 88.08 1.35, 134.26 0 M28.75 0 C66.68 0.5, 106.44 0.8, 134.26 0 M134.26 0 C155.19 -0.15, 162.54 9.84, 163.02 28.75 M134.26 0 C151.44 1.65, 161.31 9.8, 163.02 28.75 M163.02 28.75 C164.81 42.3, 164.39 57.13, 163.02 86.26 M163.02 28.75 C162.58 45.5, 163.16 63.22, 163.02 86.26 M163.02 86.26 C163.36 106.1, 153.22 115.4, 134.26 115.02 M163.02 86.26 C161.05 106.75, 153.46 116.06, 134.26 115.02 M134.26 115.02 C106.5 117.47, 82.64 113.67, 28.75 115.02 M134.26 115.02 C109.84 113.85, 86.4 114.17, 28.75 115.02 M28.75 115.02 C8.52 114.62, 0.27 104.38, 0 86.26 M28.75 115.02 C10.12 115.96, 0.52 106.85, 0 86.26 M0 86.26 C-0.62 72.68, -0.69 60.13, 0 28.75 M0 86.26 C0.44 64.37, 0.21 42.76, 0 28.75 M0 28.75 C-0.12 9.33, 9.66 0.6, 28.75 0 M0 28.75 C1.16 9.95, 11.33 2.11, 28.75 0" stroke="#e03131" stroke-width="1" fill="none"></path></g><g transform="translate(225.54727172851562 424.19346618652344) rotate(0 205.13983154296875 12.5)"><text x="0" y="0" font-family="Virgil, Segoe UI Emoji" font-size="20px" fill="#e03131" text-anchor="start" style="white-space: pre;" direction="ltr" dominant-baseline="text-before-edge">what's the purpose ? what do we serve ?</text></g><g stroke-linecap="round" transform="translate(85.16983032226562 678.5361175537109) rotate(0 336.4528503417969 196.5282745361328)"><path d="M32 0 M32 0 C233.44 2.58, 436.18 1.56, 640.91 0 M32 0 C213.14 -0.33, 394.85 -0.05, 640.91 0 M640.91 0 C660.84 -2, 671.14 11.16, 672.91 32 M640.91 0 C662.5 2.07, 673.94 10.87, 672.91 32 M672.91 32 C673.42 129.31, 674.4 226.76, 672.91 361.06 M672.91 32 C673.62 147.03, 673.64 262.34, 672.91 361.06 M672.91 361.06 C673.51 384.34, 661.67 394.08, 640.91 393.06 M672.91 361.06 C674.33 383.83, 662.94 393.92, 640.91 393.06 M640.91 393.06 C514.67 393.29, 387.35 394.04, 32 393.06 M640.91 393.06 C448.58 393.18, 256.17 393.33, 32 393.06 M32 393.06 C10.48 393.58, -0.22 383.21, 0 361.06 M32 393.06 C11.71 394.28, 1.13 382.83, 0 361.06 M0 361.06 C0.61 289.45, -1.15 217.14, 0 32 M0 361.06 C0.1 265.58, -0.14 169.57, 0 32 M0 32 C1.68 10.56, 9.06 1.04, 32 0 M0 32 C1.96 12.68, 12.31 -0.79, 32 0" stroke="#e03131" stroke-width="1" fill="none"></path></g><g stroke-linecap="round" transform="translate(124.11318969726562 722.9873886108398) rotate(0 195.16983032226562 23.547210693359375)"><path d="M11.77 0 M11.77 0 C139.49 0.45, 269.41 -0.99, 378.57 0 M11.77 0 C145.54 -0.63, 279.27 -0.68, 378.57 0 M378.57 0 C385.81 -0.8, 390.94 3.68, 390.34 11.77 M378.57 0 C384.53 -1.9, 390.21 1.99, 390.34 11.77 M390.34 11.77 C390.64 18.2, 391.16 24.94, 390.34 35.32 M390.34 11.77 C389.98 19.24, 390 24.7, 390.34 35.32 M390.34 35.32 C391.57 43.58, 385.98 45.86, 378.57 47.09 M390.34 35.32 C391.23 44.25, 386.66 45.87, 378.57 47.09 M378.57 47.09 C258.34 49.17, 138.24 49.16, 11.77 47.09 M378.57 47.09 C302.29 46, 225.52 45.99, 11.77 47.09 M11.77 47.09 C4.45 47.03, -1.7 44.74, 0 35.32 M11.77 47.09 C4.47 47.7, -0.37 41.29, 0 35.32 M0 35.32 C-0.55 27.92, 0.11 24.92, 0 11.77 M0 35.32 C0.78 31.24, -0.64 24.77, 0 11.77 M0 11.77 C1.01 3.16, 5.68 -1.3, 11.77 0 M0 11.77 C0.02 2.03, 2.58 -2.12, 11.77 0" stroke="#e03131" stroke-width="1" fill="none"></path></g><g transform="translate(138.69805908203125 733.8553695678711) rotate(0 179.2798309326172 12.5)"><text x="0" y="0" font-family="Virgil, Segoe UI Emoji" font-size="20px" fill="#e03131" text-anchor="start" style="white-space: pre;" direction="ltr" dominant-baseline="text-before-edge">people associated and their believes</text></g><g stroke-linecap="round" transform="translate(155.81130981445312 838.7641677856445) rotate(0 74.71697998046875 94.64151000976562)"><path d="M32 0 M32 0 C60.57 1.41, 89.83 -0.6, 117.43 0 M32 0 C63.22 -0.67, 94.61 0.73, 117.43 0 M117.43 0 C137.71 0.98, 148.63 9.58, 149.43 32 M117.43 0 C139.81 1.59, 147.18 9.41, 149.43 32 M149.43 32 C151.14 62, 148.2 96.25, 149.43 157.28 M149.43 32 C148.41 62.12, 149.68 90.99, 149.43 157.28 M149.43 157.28 C151.39 179.65, 140.74 189.79, 117.43 189.28 M149.43 157.28 C147.26 178.73, 139.91 191.42, 117.43 189.28 M117.43 189.28 C100.09 189.44, 78.87 190.29, 32 189.28 M117.43 189.28 C100.32 190.42, 81.79 189.55, 32 189.28 M32 189.28 C11.76 190.99, -0.01 179.23, 0 157.28 M32 189.28 C12.26 188.78, 1.67 180.05, 0 157.28 M0 157.28 C1.01 117.95, -2.27 81.34, 0 32 M0 157.28 C0.63 107.63, 0.2 57.41, 0 32 M0 32 C-0.3 10.77, 12.33 1.93, 32 0 M0 32 C2.12 11.19, 9.34 0.14, 32 0" stroke="#e03131" stroke-width="1" fill="none"></path></g><g stroke-linecap="round" transform="translate(541.6603698730469 839.7075881958008) rotate(0 74.71697998046875 94.64151000976562)"><path d="M32 0 M32 0 C51.78 -0.39, 73.4 1.7, 117.43 0 M32 0 C66.12 -0.26, 98.96 0.5, 117.43 0 M117.43 0 C137.87 0.28, 148.76 9.29, 149.43 32 M117.43 0 C138.76 0.54, 149.63 12.54, 149.43 32 M149.43 32 C152.18 66.97, 150.62 99.01, 149.43 157.28 M149.43 32 C147.35 74.09, 147.67 117.67, 149.43 157.28 M149.43 157.28 C150.56 179.35, 138.36 191.23, 117.43 189.28 M149.43 157.28 C149.37 177.22, 140.52 191.09, 117.43 189.28 M117.43 189.28 C94.48 187.63, 73.1 189.12, 32 189.28 M117.43 189.28 C89.74 189.62, 62.57 190.2, 32 189.28 M32 189.28 C11.81 189.56, 1.37 177.09, 0 157.28 M32 189.28 C12.39 190.13, -1.98 179.54, 0 157.28 M0 157.28 C-1 121.32, 0.15 86.64, 0 32 M0 157.28 C0.26 120.67, 1.62 85.39, 0 32 M0 32 C-0.22 12.07, 12.3 -1.38, 32 0 M0 32 C-1.87 8.73, 12.14 -1.68, 32 0" stroke="#e03131" stroke-width="1" fill="none"></path></g><g stroke-linecap="round" transform="translate(346.9811096191406 844.2735977172852) rotate(0 74.71697998046875 94.64151000976562)"><path d="M32 0 M32 0 C51.72 1.43, 70.03 -1.16, 117.43 0 M32 0 C61.52 0.79, 92.15 -0.04, 117.43 0 M117.43 0 C138.09 -1.38, 149.42 11.14, 149.43 32 M117.43 0 C138.97 1.87, 148.59 12.96, 149.43 32 M149.43 32 C150.31 64.87, 151.22 93.78, 149.43 157.28 M149.43 32 C147.63 65.85, 148.82 100.38, 149.43 157.28 M149.43 157.28 C149.03 180.57, 138.71 188.07, 117.43 189.28 M149.43 157.28 C151.19 180.43, 138.03 188.57, 117.43 189.28 M117.43 189.28 C100.56 189.46, 81.31 190.66, 32 189.28 M117.43 189.28 C92.64 190.55, 67.39 189.73, 32 189.28 M32 189.28 C12.04 187.75, 1.5 179.35, 0 157.28 M32 189.28 C8.69 190.21, -0.57 180.7, 0 157.28 M0 157.28 C1.2 129.56, -0.32 104.02, 0 32 M0 157.28 C1.46 126.5, 0.41 95.65, 0 32 M0 32 C1.63 9.29, 9.04 -1.68, 32 0 M0 32 C1.48 8.99, 10.72 1.53, 32 0" stroke="#e03131" stroke-width="1" fill="none"></path></g><g stroke-linecap="round" transform="translate(163.96234130859375 845.1037979125977) rotate(0 30.792434692382812 28.075469970703125)"><path d="M35.23 0.88 C41.21 1.34, 48.22 4.62, 52.59 8.99 C56.97 13.36, 61.01 21.11, 61.48 27.11 C61.95 33.11, 59.34 40.33, 55.42 44.98 C51.5 49.63, 44.47 53.81, 37.95 55.03 C31.43 56.24, 22.2 55.02, 16.31 52.27 C10.42 49.53, 4.94 43.95, 2.61 38.56 C0.28 33.17, 0.39 25.77, 2.33 19.93 C4.27 14.08, 7.8 6.42, 14.26 3.49 C20.72 0.55, 36.01 2.37, 41.07 2.32 C46.14 2.26, 44.77 2.94, 44.65 3.13 M15.86 3.26 C21.05 0.18, 29.68 -1.84, 36.32 -0.52 C42.96 0.79, 51.47 6.48, 55.7 11.14 C59.93 15.8, 62.08 21.63, 61.7 27.42 C61.32 33.22, 58.07 40.95, 53.44 45.91 C48.81 50.87, 40.45 55.94, 33.9 57.16 C27.35 58.38, 19.27 56.55, 14.13 53.23 C8.98 49.92, 4.92 43.1, 3.05 37.26 C1.18 31.43, 0.88 23.9, 2.92 18.25 C4.97 12.59, 12.86 5.61, 15.31 3.33 C17.76 1.04, 17.44 3.96, 17.6 4.55" stroke="#e03131" stroke-width="1" fill="none"></path></g><g transform="translate(181.45125310024093 860.8269126820173) rotate(0 13.529983520507812 12.5)"><text x="13.529983520507812" y="0" font-family="Virgil, Segoe UI Emoji" font-size="20px" fill="#e03131" text-anchor="middle" style="white-space: pre;" direction="ltr" dominant-baseline="text-before-edge">img</text></g><g stroke-linecap="round" transform="translate(552.5283203125 852.3868179321289) rotate(0 31.245254516601562 24.5)"><path d="M31.19 0.93 C37.69 0.61, 46.02 2.29, 51.21 5.47 C56.41 8.66, 61.09 14.96, 62.36 20.01 C63.62 25.07, 62 31.35, 58.8 35.79 C55.6 40.23, 49.36 44.66, 43.15 46.65 C36.95 48.64, 28.08 49.35, 21.6 47.73 C15.12 46.1, 7.79 41.54, 4.3 36.9 C0.81 32.26, -0.57 25.21, 0.64 19.88 C1.85 14.56, 6.1 8.18, 11.57 4.96 C17.04 1.73, 29.44 1.04, 33.45 0.51 C37.46 -0.02, 35.58 1.6, 35.62 1.79 M45.09 2.7 C51.04 4.57, 57.39 10.53, 59.83 15.3 C62.26 20.06, 61.41 26.38, 59.71 31.28 C58 36.18, 54.87 41.68, 49.58 44.7 C44.28 47.71, 34.58 49.86, 27.93 49.38 C21.28 48.89, 14.47 45.9, 9.67 41.8 C4.87 37.69, -0.18 30.29, -0.87 24.78 C-1.56 19.27, 1.26 13, 5.52 8.74 C9.79 4.48, 18.1 0.3, 24.72 -0.79 C31.33 -1.87, 41.85 1.37, 45.2 2.24 C48.54 3.12, 44.83 3.86, 44.78 4.45" stroke="#e03131" stroke-width="1" fill="none"></path></g><g transform="translate(570.1498599600052 864.5627017930585) rotate(0 13.529983520507812 12.5)"><text x="13.529983520507812" y="0" font-family="Virgil, Segoe UI Emoji" font-size="20px" fill="#e03131" text-anchor="middle" style="white-space: pre;" direction="ltr" dominant-baseline="text-before-edge">img</text></g><g stroke-linecap="round" transform="translate(355.0943298339844 853.2924880981445) rotate(0 30.792434692382812 28.075469970703125)"><path d="M36.44 0.84 C42.58 1.6, 49.96 6.25, 54.12 11.01 C58.27 15.77, 61.26 23.47, 61.36 29.41 C61.46 35.35, 58.92 42.19, 54.71 46.64 C50.51 51.1, 42.71 55.39, 36.14 56.12 C29.56 56.84, 21.08 54.13, 15.26 50.97 C9.45 47.81, 3.42 42.71, 1.24 37.15 C-0.94 31.59, -0.32 23.12, 2.17 17.61 C4.67 12.1, 9.77 6.9, 16.2 4.07 C22.63 1.24, 36.15 0.96, 40.74 0.63 C45.33 0.3, 44 1.53, 43.75 2.11 M28.39 0.76 C34.4 0.13, 42.97 2.8, 48.55 6.34 C54.14 9.87, 60.09 16.43, 61.91 21.97 C63.73 27.52, 62.73 34.54, 59.49 39.62 C56.25 44.69, 48.51 49.72, 42.47 52.44 C36.44 55.15, 29.38 57.2, 23.29 55.89 C17.21 54.58, 9.67 49.81, 5.95 44.57 C2.24 39.33, 0.6 30.66, 1.02 24.44 C1.45 18.23, 4.12 11.27, 8.48 7.27 C12.83 3.27, 23.71 1.41, 27.15 0.44 C30.59 -0.53, 28.86 0.85, 29.13 1.47" stroke="#e03131" stroke-width="1" fill="none"></path></g><g transform="translate(372.58324162563156 869.0156028675642) rotate(0 13.529983520507812 12.5)"><text x="13.529983520507812" y="0" font-family="Virgil, Segoe UI Emoji" font-size="20px" fill="#e03131" text-anchor="middle" style="white-space: pre;" direction="ltr" dominant-baseline="text-before-edge">img</text></g><g stroke-linecap="round" transform="translate(231.88677978515625 851.4433975219727) rotate(0 29.886795043945312 17.5)"><path d="M8.75 0 M8.75 0 C23.2 -1.79, 40.05 0.86, 51.02 0 M8.75 0 C18.85 0.67, 26.4 0.05, 51.02 0 M51.02 0 C56.37 1.92, 58.68 1.98, 59.77 8.75 M51.02 0 C56.22 1.94, 61.5 4.67, 59.77 8.75 M59.77 8.75 C58.58 11.68, 59.98 18.52, 59.77 26.25 M59.77 8.75 C60.29 14.07, 60.64 18.84, 59.77 26.25 M59.77 26.25 C61.59 33.72, 56.95 34.58, 51.02 35 M59.77 26.25 C59.75 32.85, 57.74 37.18, 51.02 35 M51.02 35 C35.24 34.23, 20.24 35.27, 8.75 35 M51.02 35 C41.71 34.17, 30.17 35.91, 8.75 35 M8.75 35 C3.95 35.5, 0.9 32.24, 0 26.25 M8.75 35 C2.13 35.23, -0.73 32.12, 0 26.25 M0 26.25 C0.83 23.04, -0.25 16.92, 0 8.75 M0 26.25 C-0.69 19.34, -0.49 13.43, 0 8.75 M0 8.75 C1.37 2.5, 1.78 -0.76, 8.75 0 M0 8.75 C2.24 3.48, 1.03 -2.01, 8.75 0" stroke="#e03131" stroke-width="1" fill="none"></path></g><g transform="translate(238.6335906982422 856.4433975219727) rotate(0 23.139984130859375 12.5)"><text x="23.139984130859375" y="0" font-family="Virgil, Segoe UI Emoji" font-size="20px" fill="#e03131" text-anchor="middle" style="white-space: pre;" direction="ltr" dominant-baseline="text-before-edge">name</text></g><g stroke-linecap="round" transform="translate(615.9244995117188 860.537727355957) rotate(0 29.886795043945312 17.5)"><path d="M8.75 0 M8.75 0 C24.4 1.45, 40.72 -1.49, 51.02 0 M8.75 0 C20.37 0, 30.54 -0.88, 51.02 0 M51.02 0 C58.38 0.75, 61.01 2.77, 59.77 8.75 M51.02 0 C57.33 -2.28, 60.99 4.09, 59.77 8.75 M59.77 8.75 C59.12 12.67, 58.83 14.8, 59.77 26.25 M59.77 8.75 C59.53 14.72, 60.13 20.51, 59.77 26.25 M59.77 26.25 C60.8 30.63, 58.1 35.38, 51.02 35 M59.77 26.25 C58.35 32.22, 55.01 33.76, 51.02 35 M51.02 35 C39.29 36.92, 21.98 33.24, 8.75 35 M51.02 35 C42.02 34.96, 33.13 35.94, 8.75 35 M8.75 35 C1.4 35.37, -1.79 31.83, 0 26.25 M8.75 35 C3.12 33.64, 0.99 31.26, 0 26.25 M0 26.25 C-0.39 21.24, 1.19 17.84, 0 8.75 M0 26.25 C0.48 20.61, 0.49 13.71, 0 8.75 M0 8.75 C1.7 4.7, 1.05 -0.02, 8.75 0 M0 8.75 C-1.75 1.8, 2.62 -2.01, 8.75 0" stroke="#e03131" stroke-width="1" fill="none"></path></g><g transform="translate(622.6713104248047 865.537727355957) rotate(0 23.139984130859375 12.5)"><text x="23.139984130859375" y="0" font-family="Virgil, Segoe UI Emoji" font-size="20px" fill="#e03131" text-anchor="middle" style="white-space: pre;" direction="ltr" dominant-baseline="text-before-edge">name</text></g><g stroke-linecap="round" transform="translate(425.77362060546875 859.669807434082) rotate(0 29.886795043945312 17.5)"><path d="M8.75 0 M8.75 0 C19.54 1.83, 29.46 0.51, 51.02 0 M8.75 0 C18.82 -0.23, 27.85 -1.15, 51.02 0 M51.02 0 C57.92 1.02, 57.85 3.25, 59.77 8.75 M51.02 0 C55.82 -0.9, 60.24 1.64, 59.77 8.75 M59.77 8.75 C59.72 12.55, 60.16 17.93, 59.77 26.25 M59.77 8.75 C60.41 14.48, 59.32 19.93, 59.77 26.25 M59.77 26.25 C58.16 31, 57.3 34.03, 51.02 35 M59.77 26.25 C60.46 34.24, 58.92 32.9, 51.02 35 M51.02 35 C43.67 33.99, 32.98 33.5, 8.75 35 M51.02 35 C34.68 34.95, 20.22 34.49, 8.75 35 M8.75 35 C3.78 34.28, -1.13 31.36, 0 26.25 M8.75 35 C1.53 34.41, -0.99 33.56, 0 26.25 M0 26.25 C-0.68 21.78, 0.65 16.44, 0 8.75 M0 26.25 C-0.97 22.08, -0.82 17.49, 0 8.75 M0 8.75 C-0.26 1.17, 2.62 0.82, 8.75 0 M0 8.75 C0.86 2.69, 4.98 0.4, 8.75 0" stroke="#e03131" stroke-width="1" fill="none"></path></g><g transform="translate(432.5204315185547 864.669807434082) rotate(0 23.139984130859375 12.5)"><text x="23.139984130859375" y="0" font-family="Virgil, Segoe UI Emoji" font-size="20px" fill="#e03131" text-anchor="middle" style="white-space: pre;" direction="ltr" dominant-baseline="text-before-edge">name</text></g><g stroke-linecap="round" transform="translate(114.15106201171875 1135.5456085205078) rotate(0 142.64151000976562 148.07546997070312)"><path d="M32 0 M32 0 C100.58 -1.76, 168.41 -1.69, 253.28 0 M32 0 C95.7 0.76, 159.4 1.3, 253.28 0 M253.28 0 C276.08 1.05, 284.95 11.6, 285.28 32 M253.28 0 C275.65 -1.81, 287.04 12.12, 285.28 32 M285.28 32 C286.25 93.52, 287.08 151.28, 285.28 264.15 M285.28 32 C286.72 114.93, 286.93 197.11, 285.28 264.15 M285.28 264.15 C287.16 287.33, 274.21 296.06, 253.28 296.15 M285.28 264.15 C286.19 286.91, 275.5 294.82, 253.28 296.15 M253.28 296.15 C199.88 297.37, 149.49 297.14, 32 296.15 M253.28 296.15 C203.39 296.96, 152.33 297.26, 32 296.15 M32 296.15 C8.74 297.06, -1.99 283.55, 0 264.15 M32 296.15 C8.78 295.85, -2.04 286.99, 0 264.15 M0 264.15 C-1.77 202.66, -1.02 143.23, 0 32 M0 264.15 C1.37 201.64, 1.96 140.18, 0 32 M0 32 C-1.74 10, 11.12 1.86, 32 0 M0 32 C-2.19 8.48, 9.46 -1.17, 32 0" stroke="#e03131" stroke-width="1" fill="none"></path></g><g stroke-linecap="round" transform="translate(424.94342041015625 1231.1085510253906) rotate(0 140.37734985351562 54.33961486816406)"><path d="M27.17 0 M27.17 0 C96.93 -2.97, 166.54 -1.73, 253.58 0 M27.17 0 C114.79 2.07, 203.94 1.47, 253.58 0 M253.58 0 C271.7 -1.22, 282.21 10.55, 280.75 27.17 M253.58 0 C269.71 -2.07, 280.92 11.06, 280.75 27.17 M280.75 27.17 C281.63 46.55, 279.08 62.68, 280.75 81.51 M280.75 27.17 C281.28 49.03, 281.02 69.1, 280.75 81.51 M280.75 81.51 C279.73 100.28, 273.54 107.83, 253.58 108.68 M280.75 81.51 C282.9 101.83, 272.76 106.92, 253.58 108.68 M253.58 108.68 C184.07 107.99, 112.11 107.81, 27.17 108.68 M253.58 108.68 C169.37 110.01, 86.2 109.23, 27.17 108.68 M27.17 108.68 C7.9 106.85, -0.09 99.05, 0 81.51 M27.17 108.68 C8.1 107.49, -0.29 99.43, 0 81.51 M0 81.51 C0.16 68.38, 0.21 52.21, 0 27.17 M0 81.51 C0.37 70.26, -0.32 58.12, 0 27.17 M0 27.17 C-1.18 10.33, 9.17 1.36, 27.17 0 M0 27.17 C0.27 7.99, 9.85 -0.13, 27.17 0" stroke="#e03131" stroke-width="1" fill="none"></path></g><g transform="translate(452.1134338378906 1264.6179885864258) rotate(0 104.48285675048828 19.911434778444004)"><text x="0" y="0" font-family="Virgil, Segoe UI Emoji" font-size="15.929147822755164px" fill="#e03131" text-anchor="start" style="white-space: pre;" direction="ltr" dominant-baseline="text-before-edge">how unnati foundation</text><text x="0" y="19.911434778443954" font-family="Virgil, Segoe UI Emoji" font-size="15.929147822755164px" fill="#e03131" text-anchor="start" style="white-space: pre;" direction="ltr" dominant-baseline="text-before-edge"> aims to help the commnity</text></g><g stroke-linecap="round" transform="translate(140.41506958007812 1172.751594543457) rotate(0 118.64152526855469 118.18868255615234)"><path d="M32 0 M32 0 C77.23 -0.37, 119.06 -2.76, 205.28 0 M32 0 C97.62 -1.14, 164.12 -1.5, 205.28 0 M205.28 0 C227.86 0.56, 236.86 11.69, 237.28 32 M205.28 0 C226.53 1.69, 236.68 8.61, 237.28 32 M237.28 32 C234.94 89.41, 235.57 142.27, 237.28 204.38 M237.28 32 C236.36 100.24, 236.16 168.2, 237.28 204.38 M237.28 204.38 C236.68 226.72, 227.26 234.92, 205.28 236.38 M237.28 204.38 C239.25 226.48, 226.96 238.67, 205.28 236.38 M205.28 236.38 C164.49 238.76, 127.1 236.95, 32 236.38 M205.28 236.38 C164.57 236.83, 121.72 237.38, 32 236.38 M32 236.38 C10.93 235.67, 1.71 225.53, 0 204.38 M32 236.38 C10.82 235.41, -1.32 224.63, 0 204.38 M0 204.38 C-3 143.9, -1.11 84.66, 0 32 M0 204.38 C0.51 160.73, -0.42 115.84, 0 32 M0 32 C-0.61 11.51, 11.62 0.01, 32 0 M0 32 C0.39 9.97, 10.28 0.94, 32 0" stroke="#e03131" stroke-width="1" fill="none"></path></g><g transform="translate(197.4716796875 1265.1289749145508) rotate(0 53.43994903564453 12.5)"><text x="0" y="0" font-family="Virgil, Segoe UI Emoji" font-size="20px" fill="#e03131" text-anchor="start" style="white-space: pre;" direction="ltr" dominant-baseline="text-before-edge">some image</text></g><g stroke-linecap="round" transform="translate(127.73583984375 1495.8506317138672) rotate(0 307.0188751220703 77.4339599609375)"><path d="M32 0 M32 0 C202.87 -1.42, 374.02 -2.11, 582.04 0 M32 0 C152.65 1, 273.5 1.41, 582.04 0 M582.04 0 C601.64 0.68, 615.94 12.03, 614.04 32 M582.04 0 C601.86 -1.42, 611.74 10.86, 614.04 32 M614.04 32 C614.69 52.95, 612.8 72.71, 614.04 122.87 M614.04 32 C613.85 52.68, 615.22 71.57, 614.04 122.87 M614.04 122.87 C614.04 145.41, 604.56 155.39, 582.04 154.87 M614.04 122.87 C614.22 142.16, 603.19 152.84, 582.04 154.87 M582.04 154.87 C446.84 154.45, 312.51 154.83, 32 154.87 M582.04 154.87 C384.97 153.47, 187.18 153.09, 32 154.87 M32 154.87 C9.09 153.72, -1.9 143.74, 0 122.87 M32 154.87 C12.44 156.02, -2.2 145.29, 0 122.87 M0 122.87 C-2.43 96.75, -0.34 72, 0 32 M0 122.87 C-0.12 101.07, 0.82 79.83, 0 32 M0 32 C-1.68 11.47, 11.03 -0.64, 32 0 M0 32 C-0.99 8.56, 9.81 2.11, 32 0" stroke="#e03131" stroke-width="1" fill="none"></path></g><g stroke-linecap="round" transform="translate(146.75482177734375 1527.6226959228516) rotate(0 290.7169342041016 42.5660400390625)"><path d="M21.28 0 M21.28 0 C163.73 1.73, 305.66 2.18, 560.15 0 M21.28 0 C195.86 -0.37, 370.62 -0.48, 560.15 0 M560.15 0 C576 -0.01, 580.53 6.61, 581.43 21.28 M560.15 0 C573.8 1.19, 581.98 8.12, 581.43 21.28 M581.43 21.28 C581.35 38.61, 583.01 55.24, 581.43 63.85 M581.43 21.28 C581.17 31.88, 581.44 40.37, 581.43 63.85 M581.43 63.85 C580.92 76.85, 573.61 86.59, 560.15 85.13 M581.43 63.85 C581.78 76.19, 572.46 83.42, 560.15 85.13 M560.15 85.13 C427.55 83.72, 295.93 84.33, 21.28 85.13 M560.15 85.13 C389.98 84.6, 219.87 85.18, 21.28 85.13 M21.28 85.13 C6.18 84.86, -0.33 77.69, 0 63.85 M21.28 85.13 C5.18 85.72, -2 78.72, 0 63.85 M0 63.85 C0.12 53.76, 0.92 39.46, 0 21.28 M0 63.85 C-0.56 53.2, 0.63 42.15, 0 21.28 M0 21.28 C-0.59 7, 8.69 1.23, 21.28 0 M0 21.28 C1.91 4.88, 6.3 -1.09, 21.28 0" stroke="#e03131" stroke-width="1" fill="none"></path></g><g transform="translate(337.8489685058594 1555.698127746582) rotate(0 76.94993591308594 12.5)"><text x="0" y="0" font-family="Virgil, Segoe UI Emoji" font-size="20px" fill="#e03131" text-anchor="start" style="white-space: pre;" direction="ltr" dominant-baseline="text-before-edge">contact details</text></g><g stroke-linecap="round" transform="translate(73.39620971679688 1694.116340637207) rotate(0 354.11322021484375 61.584922790527344)"><path d="M30.79 0 M30.79 0 C215.95 1.86, 400.76 2.62, 677.43 0 M30.79 0 C272.26 2.27, 512.83 2.23, 677.43 0 M677.43 0 C696.4 -1.98, 708.9 11.51, 708.23 30.79 M677.43 0 C696.12 -1.23, 706.85 9.8, 708.23 30.79 M708.23 30.79 C707.47 55.47, 706.53 77.1, 708.23 92.38 M708.23 30.79 C707.14 50.66, 708.77 69.08, 708.23 92.38 M708.23 92.38 C708.08 112.91, 699.47 121.95, 677.43 123.17 M708.23 92.38 C707.22 111.39, 696.73 123.23, 677.43 123.17 M677.43 123.17 C514.71 123.27, 351.7 122.15, 30.79 123.17 M677.43 123.17 C484.39 124.77, 292.25 124.7, 30.79 123.17 M30.79 123.17 C11.31 123.92, -1.7 111.25, 0 92.38 M30.79 123.17 C8.94 125.31, 1.18 113.25, 0 92.38 M0 92.38 C-0.47 77.84, -0.59 66.32, 0 30.79 M0 92.38 C0.07 72.75, -1.27 54.69, 0 30.79 M0 30.79 C1.86 10.41, 10.29 -0.94, 30.79 0 M0 30.79 C0 10.71, 11.88 -1.51, 30.79 0" stroke="#e03131" stroke-width="1" fill="none"></path></g><g transform="translate(402.15093994140625 1747.5503463745117) rotate(0 31.359962463378906 12.5)"><text x="0" y="0" font-family="Virgil, Segoe UI Emoji" font-size="20px" fill="#e03131" text-anchor="start" style="white-space: pre;" direction="ltr" dominant-baseline="text-before-edge">footer</text></g><g transform="translate(423.8869323730469 63.880499430813046) rotate(0 143.72616577148438 13.207340354057138)"><text x="0" y="0" font-family="Virgil, Segoe UI Emoji" font-size="21.13174456649143px" fill="#e03131" text-anchor="start" style="white-space: pre;" direction="ltr" dominant-baseline="text-before-edge">home about contact events</text></g></svg>